<svg width="147" height="44" fill="none" xmlns="http://www.w3.org/2000/svg"><path d="M.5 8A7.5 7.5 0 018 .5h131a7.5 7.5 0 017.5 7.5v28a7.5 7.5 0 01-7.5 7.5H8A7.5 7.5 0 01.5 36V8z" stroke="#fff"/><path d="M40.113 23a.345.345 0 01-.252-.108.345.345 0 01-.108-.252c0-.096.006-.162.018-.198l4.464-11.646c.096-.264.288-.396.576-.396h1.224c.288 0 .48.132.576.396l4.446 11.646.036.198c0 .096-.036.18-.108.252a.345.345 0 01-.252.108h-.918a.465.465 0 01-.306-.09.567.567 0 01-.144-.216l-.99-2.556H42.47l-.99 2.556a.51.51 0 01-.162.216.435.435 0 01-.288.09h-.918zm7.74-4.41l-2.43-6.39-2.43 6.39h4.86zm5.362 7.83a.417.417 0 01-.306-.126.39.39 0 01-.108-.288V14.054a.39.39 0 01.108-.288.417.417 0 01.306-.126h.828a.36.36 0 01.288.126.36.36 0 01.126.288v.792c.672-.924 1.656-1.386 2.952-1.386 1.26 0 2.202.396 2.826 1.188.636.792.978 1.812 1.026 3.06.012.132.018.336.018.612 0 .276-.006.48-.018.612-.048 1.236-.39 2.256-1.026 3.06-.636.792-1.578 1.188-2.826 1.188s-2.22-.45-2.916-1.35v4.176a.39.39 0 01-.108.288.36.36 0 01-.288.126h-.882zm3.816-4.698c.852 0 1.47-.264 1.854-.792.396-.528.612-1.224.648-2.088.012-.12.018-.294.018-.522 0-2.268-.84-3.402-2.52-3.402-.828 0-1.452.276-1.872.828-.408.54-.63 1.188-.666 1.944l-.018.684.018.702c.024.708.252 1.326.684 1.854.432.528 1.05.792 1.854.792zm6.907 4.698a.417.417 0 01-.306-.126.39.39 0 01-.108-.288V14.054a.39.39 0 01.108-.288.417.417 0 01.306-.126h.828a.36.36 0 01.288.126.36.36 0 01.126.288v.792c.672-.924 1.656-1.386 2.952-1.386 1.26 0 2.202.396 2.826 1.188.636.792.978 1.812 1.026 3.06.012.132.018.336.018.612 0 .276-.006.48-.018.612-.048 1.236-.39 2.256-1.026 3.06-.636.792-1.578 1.188-2.826 1.188s-2.22-.45-2.916-1.35v4.176a.39.39 0 01-.108.288.36.36 0 01-.288.126h-.882zm3.816-4.698c.852 0 1.47-.264 1.854-.792.396-.528.612-1.224.648-2.088.012-.12.018-.294.018-.522 0-2.268-.84-3.402-2.52-3.402-.828 0-1.452.276-1.872.828-.408.54-.63 1.188-.666 1.944l-.018.684.018.702c.024.708.252 1.326.684 1.854.432.528 1.05.792 1.854.792zm15.17 1.458c-.995 0-1.86-.156-2.591-.468-.72-.312-1.272-.72-1.656-1.224-.384-.516-.588-1.068-.612-1.656 0-.096.036-.18.108-.252a.396.396 0 01.288-.126h.918c.228 0 .384.12.468.36.108.504.414.936.918 1.296.516.36 1.236.54 2.16.54.996 0 1.746-.174 2.25-.522.504-.36.756-.858.756-1.494 0-.408-.126-.738-.378-.99-.24-.252-.6-.474-1.08-.666-.48-.192-1.2-.432-2.16-.72-.936-.264-1.68-.546-2.232-.846-.552-.3-.966-.672-1.242-1.116-.276-.444-.414-1.002-.414-1.674 0-.648.174-1.23.522-1.746.36-.516.87-.918 1.53-1.206.66-.3 1.446-.45 2.358-.45.936 0 1.74.168 2.412.504.672.324 1.182.738 1.53 1.242.348.504.534 1.008.558 1.512 0 .096-.036.18-.108.252-.06.072-.15.108-.27.108h-.954c-.252 0-.408-.114-.468-.342-.072-.504-.354-.918-.846-1.242-.492-.336-1.11-.504-1.854-.504-.816 0-1.458.156-1.926.468-.468.312-.702.774-.702 1.386 0 .408.108.744.324 1.008.228.264.57.498 1.026.702.456.192 1.122.414 1.998.666 1.02.276 1.824.564 2.412.864.588.288 1.026.654 1.314 1.098.288.432.432.984.432 1.656 0 1.116-.432 1.992-1.296 2.628-.864.636-2.028.954-3.492.954zM93.493 23c-1.896 0-2.844-1.056-2.844-3.168V15.08h-1.404a.454.454 0 01-.306-.108.454.454 0 01-.108-.306v-.612a.39.39 0 01.108-.288.417.417 0 01.306-.126h1.404v-3.006a.39.39 0 01.108-.288.417.417 0 01.306-.126h.846a.36.36 0 01.288.126.36.36 0 01.126.288v3.006h2.232a.36.36 0 01.288.126.36.36 0 01.126.288v.612c0 .12-.042.222-.126.306a.39.39 0 01-.288.108h-2.232v4.626c0 .6.102 1.056.306 1.368.204.3.54.45 1.008.45h1.098a.36.36 0 01.288.126.36.36 0 01.126.288v.648c0 .12-.042.222-.126.306a.39.39 0 01-.288.108h-1.242zm7.211.18c-1.32 0-2.346-.372-3.078-1.116-.72-.744-1.104-1.734-1.152-2.97l-.018-.774.018-.774c.048-1.224.438-2.208 1.17-2.952.732-.756 1.752-1.134 3.06-1.134s2.328.378 3.06 1.134c.732.744 1.122 1.728 1.17 2.952.012.132.018.39.018.774s-.006.642-.018.774c-.048 1.236-.438 2.226-1.17 2.97-.72.744-1.74 1.116-3.06 1.116zm0-1.386c.756 0 1.35-.24 1.782-.72.444-.48.684-1.17.72-2.07.012-.12.018-.348.018-.684 0-.336-.006-.564-.018-.684-.036-.9-.276-1.59-.72-2.07-.432-.48-1.026-.72-1.782-.72s-1.356.24-1.8.72c-.444.48-.678 1.17-.702 2.07l-.018.684.018.684c.024.9.258 1.59.702 2.07.444.48 1.044.72 1.8.72zM107.619 23a.454.454 0 01-.306-.108.454.454 0 01-.108-.306v-8.514c0-.12.036-.222.108-.306a.417.417 0 01.306-.126h.828c.12 0 .222.042.306.126a.417.417 0 01.126.306v.792c.492-.816 1.332-1.224 2.52-1.224h.702a.36.36 0 01.288.126.36.36 0 01.126.288v.738a.36.36 0 01-.126.288.39.39 0 01-.288.108h-1.08c-.648 0-1.158.192-1.53.576-.372.372-.558.882-.558 1.53v5.292c0 .12-.042.222-.126.306a.454.454 0 01-.306.108h-.882zm9.992.18c-1.236 0-2.226-.378-2.97-1.134-.732-.768-1.134-1.812-1.206-3.132l-.018-.612.018-.594c.084-1.296.492-2.328 1.224-3.096.744-.768 1.722-1.152 2.934-1.152 1.332 0 2.364.426 3.096 1.278.732.84 1.098 1.98 1.098 3.42v.306c0 .12-.042.222-.126.306a.39.39 0 01-.288.108h-6.228v.162c.036.78.27 1.446.702 1.998.444.54 1.026.81 1.746.81.552 0 1.002-.108 1.35-.324.36-.228.624-.462.792-.702.108-.144.186-.228.234-.252.06-.036.162-.054.306-.054h.882c.108 0 .198.03.27.09a.31.31 0 01.108.252c0 .264-.168.582-.504.954-.324.372-.786.696-1.386.972-.588.264-1.266.396-2.034.396zm2.466-5.544v-.054c0-.828-.228-1.5-.684-2.016-.444-.528-1.044-.792-1.8-.792s-1.356.264-1.8.792c-.432.516-.648 1.188-.648 2.016v.054h4.932zM41.794 34.08c-.699 0-1.24-.181-1.624-.544-.379-.368-.579-.92-.6-1.656a22.98 22.98 0 01-.008-.68c0-.293.003-.517.008-.672.021-.72.23-1.267.624-1.64.395-.379.928-.568 1.6-.568.667 0 1.197.19 1.592.568.395.373.603.92.624 1.64.01.31.016.533.016.672 0 .133-.005.36-.016.68-.021.736-.224 1.288-.608 1.656-.379.363-.915.544-1.608.544zm0-.68c.421 0 .757-.128 1.008-.384.25-.256.387-.648.408-1.176.01-.32.016-.533.016-.64 0-.117-.005-.33-.016-.64-.021-.528-.16-.92-.416-1.176-.25-.256-.584-.384-1-.384-.421 0-.76.128-1.016.384-.25.256-.387.648-.408 1.176-.005.155-.008.368-.008.64 0 .267.003.48.008.64.021.528.157.92.408 1.176.256.256.595.384 1.016.384zm3.478.6a.202.202 0 01-.136-.048.202.202 0 01-.048-.136v-3.784c0-.053.016-.099.048-.136a.185.185 0 01.136-.056h.368c.053 0 .099.019.136.056a.185.185 0 01.056.136v.352c.219-.363.592-.544 1.12-.544h.312a.16.16 0 01.128.056.16.16 0 01.056.128v.328a.16.16 0 01-.056.128.173.173 0 01-.128.048h-.48c-.288 0-.515.085-.68.256-.165.165-.248.392-.248.68v2.352a.185.185 0 01-.056.136.202.202 0 01-.136.048h-.392zm5.777 1.52a.185.185 0 01-.136-.056.173.173 0 01-.048-.128V33.48c-.31.4-.741.6-1.296.6-.554 0-.973-.176-1.256-.528-.282-.357-.432-.81-.448-1.36l-.008-.272.008-.272c.016-.555.163-1.008.44-1.36.283-.352.704-.528 1.264-.528.576 0 1.014.205 1.312.616v-.352c0-.053.016-.096.048-.128a.185.185 0 01.136-.056h.368a.16.16 0 01.128.056.16.16 0 01.056.128v5.312a.16.16 0 01-.056.128.16.16 0 01-.128.056h-.384zm-1.312-2.088c.358 0 .632-.117.824-.352.192-.235.294-.51.304-.824a3.73 3.73 0 00.008-.312c0-.15-.002-.25-.008-.304a1.485 1.485 0 00-.304-.864c-.181-.245-.456-.368-.824-.368-.378 0-.656.117-.832.352-.17.235-.264.544-.28.928l-.008.232c0 1.008.374 1.512 1.12 1.512zm4.23.648c-.261 0-.504-.053-.728-.16a1.395 1.395 0 01-.536-.432 1.066 1.066 0 01-.192-.616c0-.352.144-.64.432-.864.293-.23.688-.379 1.184-.448l1.192-.168v-.232c0-.544-.312-.816-.936-.816-.235 0-.427.05-.576.152a.984.984 0 00-.336.344.217.217 0 01-.064.104c-.021.021-.053.032-.096.032h-.344a.191.191 0 01-.128-.048.191.191 0 01-.048-.128c.005-.128.064-.272.176-.432a1.38 1.38 0 01.536-.424c.24-.123.536-.184.888-.184.597 0 1.026.141 1.288.424.261.277.392.624.392 1.04v2.592a.185.185 0 01-.056.136.173.173 0 01-.128.048h-.368a.202.202 0 01-.136-.048.202.202 0 01-.048-.136v-.344c-.117.17-.288.315-.512.432-.224.117-.51.176-.856.176zm.168-.6c.346 0 .63-.112.848-.336.224-.23.336-.557.336-.984v-.224l-.928.136c-.379.053-.664.144-.856.272-.192.123-.288.28-.288.472 0 .213.088.379.264.496.176.112.384.168.624.168zm3.278.52a.202.202 0 01-.136-.048.202.202 0 01-.048-.136v-5.312c0-.053.016-.096.048-.128a.185.185 0 01.136-.056h.376a.16.16 0 01.128.056.16.16 0 01.056.128v5.312a.185.185 0 01-.056.136.173.173 0 01-.128.048h-.376zm1.873-4.936a.202.202 0 01-.136-.048.202.202 0 01-.048-.136v-.432c0-.053.016-.099.048-.136a.185.185 0 01.136-.056h.504c.054 0 .099.019.136.056a.185.185 0 01.056.136v.432a.185.185 0 01-.056.136.202.202 0 01-.136.048h-.504zM59.35 34a.202.202 0 01-.136-.048.202.202 0 01-.048-.136v-3.792c0-.053.016-.096.048-.128a.185.185 0 01.136-.056h.384a.16.16 0 01.128.056.16.16 0 01.056.128v3.792a.185.185 0 01-.056.136.173.173 0 01-.128.048h-.384zm4.224 1.52a.153.153 0 01-.112-.048.153.153 0 01-.048-.112c0-.037.013-.085.04-.144l.616-1.464-1.528-3.608a.513.513 0 01-.04-.136.163.163 0 01.168-.168h.392c.085 0 .15.045.192.136l1.216 2.912 1.248-2.912c.043-.09.11-.136.2-.136h.376c.048 0 .088.016.12.048s.048.07.048.112a.765.765 0 01-.04.144l-2.272 5.24c-.043.09-.11.136-.2.136h-.376zm5.238-1.44c-.507 0-.899-.163-1.176-.488-.277-.33-.416-.768-.416-1.312v-2.256c0-.053.016-.096.048-.128a.185.185 0 01.136-.056h.4a.16.16 0 01.128.056.16.16 0 01.056.128v2.216c0 .795.347 1.192 1.04 1.192.336 0 .603-.104.8-.312.197-.213.296-.507.296-.88v-2.216c0-.053.016-.096.048-.128a.185.185 0 01.136-.056h.4a.16.16 0 01.128.056.173.173 0 01.048.128v3.792a.202.202 0 01-.048.136.173.173 0 01-.128.048h-.376a.202.202 0 01-.136-.048.202.202 0 01-.048-.136v-.352a1.51 1.51 0 01-.544.464c-.213.101-.477.152-.792.152zm3.453-.08a.202.202 0 01-.136-.048.202.202 0 01-.049-.136v-5.312c0-.053.017-.096.049-.128a.185.185 0 01.135-.056h.377a.16.16 0 01.127.056.16.16 0 01.056.128v2.784l1.576-1.312a1.02 1.02 0 00.08-.064.402.402 0 01.105-.056.499.499 0 01.136-.016h.423a.163.163 0 01.168.168c0 .059-.031.11-.096.152l-1.847 1.536 2.047 1.992c.065.053.097.101.097.144a.163.163 0 01-.169.168h-.415a.477.477 0 01-.177-.024.757.757 0 01-.143-.112l-1.784-1.704v1.656a.185.185 0 01-.056.136.173.173 0 01-.129.048h-.376zm4.124 0a.202.202 0 01-.135-.048.202.202 0 01-.049-.136v-5.312c0-.053.017-.096.049-.128a.185.185 0 01.135-.056h.377a.16.16 0 01.127.056.16.16 0 01.056.128v5.312a.185.185 0 01-.055.136.173.173 0 01-.129.048h-.376zm2.914.08a1.67 1.67 0 01-.728-.16 1.394 1.394 0 01-.536-.432 1.066 1.066 0 01-.192-.616c0-.352.144-.64.432-.864.293-.23.688-.379 1.184-.448l1.192-.168v-.232c0-.544-.312-.816-.936-.816-.235 0-.427.05-.576.152a.982.982 0 00-.336.344.218.218 0 01-.064.104c-.022.021-.054.032-.096.032h-.344a.191.191 0 01-.128-.048.191.191 0 01-.048-.128c.005-.128.064-.272.176-.432a1.38 1.38 0 01.536-.424c.24-.123.536-.184.888-.184.597 0 1.026.141 1.288.424.261.277.392.624.392 1.04v2.592a.185.185 0 01-.056.136.173.173 0 01-.128.048h-.368a.202.202 0 01-.136-.048.202.202 0 01-.048-.136v-.344a1.39 1.39 0 01-.512.432c-.224.117-.51.176-.856.176zm.168-.6c.346 0 .63-.112.848-.336.224-.23.336-.557.336-.984v-.224l-.928.136c-.379.053-.664.144-.856.272-.192.123-.288.28-.288.472 0 .213.088.379.264.496.176.112.384.168.624.168zm4.526.6c-.373 0-.688-.059-.944-.176a1.688 1.688 0 01-.568-.416c-.123-.155-.184-.283-.184-.384a.14.14 0 01.056-.12.213.213 0 01.128-.048h.36c.053 0 .101.027.144.08.128.15.266.267.416.352.15.085.35.128.6.128.277 0 .501-.053.672-.16a.517.517 0 00.264-.456.439.439 0 00-.112-.312c-.07-.085-.192-.157-.368-.216a6.002 6.002 0 00-.768-.208c-.464-.101-.795-.248-.992-.44-.192-.192-.288-.44-.288-.744 0-.203.059-.395.176-.576.123-.187.299-.336.528-.448a1.86 1.86 0 01.84-.176c.341 0 .632.056.872.168.24.112.419.245.536.4.123.15.184.275.184.376a.151.151 0 01-.056.12.163.163 0 01-.12.048h-.336a.197.197 0 01-.16-.08 1.902 1.902 0 00-.224-.232.716.716 0 00-.264-.152 1.23 1.23 0 00-.432-.064c-.256 0-.453.056-.592.168a.509.509 0 00-.208.424c0 .112.03.208.088.288.058.075.17.144.336.208.17.064.416.13.736.2.507.107.864.261 1.072.464.213.197.32.45.32.76 0 .23-.067.437-.2.624s-.33.333-.592.44c-.256.107-.563.16-.92.16zm2.83-.08a.202.202 0 01-.136-.048.202.202 0 01-.048-.136v-5.312c0-.053.016-.096.048-.128a.185.185 0 01.136-.056h.4a.16.16 0 01.128.056.16.16 0 01.056.128v1.864c.155-.197.336-.347.544-.448.208-.107.467-.16.776-.16.512 0 .91.165 1.192.496.288.325.432.76.432 1.304v2.256a.185.185 0 01-.056.136.173.173 0 01-.128.048h-.4a.202.202 0 01-.136-.048.202.202 0 01-.048-.136V31.6c0-.379-.093-.672-.28-.88-.181-.208-.445-.312-.792-.312-.336 0-.605.107-.808.32-.197.208-.296.499-.296.872v2.216a.185.185 0 01-.056.136.173.173 0 01-.128.048h-.4z" fill="#fff"/><g clip-path="url(#clip0)"><path d="M17.373 34.532a5.51 5.51 0 01-1.293-1.2c-.4-.482-.772-.987-1.111-1.514a14.748 14.748 0 01-1.856-3.788c-.52-1.563-.773-3.06-.773-4.525 0-1.636.354-3.064 1.046-4.264a6 6 0 012.185-2.27 5.82 5.82 0 012.958-.875c.366 0 .76.053 1.18.154.3.085.667.22 1.114.387.57.22.883.354.99.387.333.122.614.175.834.175.167 0 .403-.053.671-.135.15-.053.435-.146.842-.32.403-.148.72-.273.973-.367.387-.114.76-.22 1.094-.273a5.205 5.205 0 011.196-.049 7.08 7.08 0 012.023.435c1.062.428 1.92 1.095 2.56 2.043-.27.167-.524.359-.758.573-.508.451-.94.98-1.282 1.567a5.332 5.332 0 00-.67 2.624c.016 1.127.305 2.12.874 2.98a5.6 5.6 0 001.6 1.598c.325.22.606.37.875.472-.126.39-.26.769-.42 1.144-.359.84-.795 1.647-1.302 2.409-.451.655-.805 1.143-1.074 1.468-.419.496-.822.875-1.229 1.14a2.744 2.744 0 01-1.514.455 3.433 3.433 0 01-1.078-.13 12.15 12.15 0 01-.891-.338 7.143 7.143 0 00-.94-.354 4.897 4.897 0 00-2.421-.004 7.73 7.73 0 00-.949.337c-.435.183-.724.306-.891.358a4.62 4.62 0 01-1.03.18c-.541 0-1.046-.156-1.546-.469l.013-.01zm7.141-19.23c-.708.354-1.383.505-2.055.455-.105-.675 0-1.367.28-2.124a5.677 5.677 0 011.042-1.75 5.548 5.548 0 011.697-1.31c.688-.354 1.343-.545 1.97-.573.08.707 0 1.403-.26 2.156a6.236 6.236 0 01-1.042 1.831c-.458.544-1.02.99-1.652 1.314h.02z" fill="#fff"/></g><defs><clipPath id="clip0"><path fill="#fff" d="M10 10h25v25H10z"/></clipPath></defs></svg>