<svg width="134" height="32" fill="none" xmlns="http://www.w3.org/2000/svg"><path d="M2.367 24.82C6.195 16.518 9.966 8.296 13.809 0h6.427c-3.306 7.144-6.362 13.975-9.655 21.125-2.844.686-5.817 1.99-8.214 3.695zm26.654 6.83c-3.534-7.67-7.062-15.343-10.595-23.012 1.08-2.32 2.108-4.665 3.227-6.965 4.214 9.173 8.431 18.344 12.665 27.505-1.743.868-3.533 1.644-5.297 2.472zM0 29.42c6.269-6.295 13.787-8.503 22.554-6.622 1.065 2.394 2.266 4.75 3.329 7.147a18.233 18.233 0 00-7.259-2.01c-3.77-.29-7.711.346-10.98 2.322-.751.495-1.6 1.013-2.145 1.743C2.67 30.652.835 29.793 0 29.42z" fill="#fff"/><path fill-rule="evenodd" clip-rule="evenodd" d="M18.414 12.954l2.579 5.62a1.325 1.325 0 01-1.403 1.863 20.379 20.379 0 00-2.744-.254c-.793-.013-1.557.02-2.294.1a.975.975 0 01-.99-1.375l2.7-5.95a1.183 1.183 0 012.152-.004z" fill="#fff" fill-opacity=".5"/><path d="M58.9 8.85v14.993h-3.96v-1.171c-1.34 1.081-2.99 1.622-4.95 1.622-1.981 0-3.701-.751-5.161-2.254-1.46-1.502-2.19-3.395-2.19-5.679 0-2.283.734-4.181 2.205-5.694 1.47-1.512 3.185-2.268 5.145-2.268 1.98 0 3.63.55 4.95 1.652V8.85h3.96zm-8.22 11.989c1.12 0 2.11-.416 2.97-1.247.86-.832 1.29-1.909 1.29-3.23 0-1.323-.43-2.405-1.29-3.246-.86-.841-1.85-1.262-2.97-1.262-1.221 0-2.226.41-3.016 1.232-.79.821-1.185 1.913-1.185 3.275 0 1.363.395 2.45 1.185 3.26.79.812 1.795 1.218 3.015 1.218zm9.765-.962l3.99-.811c.18 1.362 1.21 2.043 3.09 2.043.72 0 1.29-.14 1.71-.42.42-.281.63-.642.63-1.082 0-.662-.55-1.112-1.65-1.353l-3.06-.63c-1.36-.281-2.405-.792-3.135-1.533-.73-.741-1.095-1.653-1.095-2.735 0-1.462.555-2.654 1.665-3.575 1.11-.922 2.596-1.382 4.456-1.382 1.74 0 3.195.41 4.365 1.231 1.17.822 1.885 1.893 2.145 3.216l-3.78.75a2.15 2.15 0 00-.885-1.502c-.51-.38-1.165-.57-1.965-.57-.72 0-1.24.145-1.56.435-.32.29-.48.636-.48 1.037 0 .64.45 1.062 1.35 1.262l3.57.781c1.28.28 2.255.796 2.925 1.548.67.75 1.005 1.647 1.005 2.689 0 1.623-.595 2.865-1.785 3.726-1.19.861-2.785 1.292-4.785 1.292-1.78 0-3.3-.366-4.56-1.097-1.26-.73-1.98-1.838-2.16-3.32zM91.298 8.849v14.994h-3.96v-1.171c-1.34 1.081-2.99 1.622-4.95 1.622-1.98 0-3.701-.751-5.161-2.254-1.46-1.502-2.19-3.395-2.19-5.679 0-2.283.735-4.181 2.205-5.694 1.47-1.512 3.185-2.268 5.145-2.268 1.98 0 3.63.55 4.95 1.652V8.85h3.961zm-8.22 11.99c1.12 0 2.11-.416 2.97-1.247.86-.832 1.29-1.909 1.29-3.23 0-1.323-.43-2.405-1.29-3.246-.86-.841-1.85-1.262-2.97-1.262-1.22 0-2.226.41-3.016 1.232-.79.821-1.185 1.913-1.185 3.275 0 1.363.395 2.45 1.185 3.26.79.812 1.795 1.218 3.015 1.218zm21.134-4.297l5.04 7.301h-4.71l-3.27-4.747-3.24 4.747H93.32l5.04-7.301-5.04-7.723h4.71l3.241 5.048 3.27-5.048h4.71l-5.04 7.723zm11.234 7.301h-3.961V8.85h3.961v14.994zm6.043-15.024l3.96 9.586 4.141-9.586H134l-7.614 17.604-1.087 2.529h-4.41l1.08-2.515 1.32-3.074-6.21-14.544h4.41zm-8.023-6.43c.69 0 1.268.239 1.735.715.467.476.701 1.038.701 1.687 0 .668-.234 1.225-.701 1.671-.467.446-1.045.669-1.735.669-.711 0-1.295-.223-1.752-.669-.456-.446-.685-1.003-.685-1.671 0-.649.234-1.21.701-1.687.467-.476 1.045-.714 1.736-.714z" fill="#fff"/></svg>