<svg width="147" height="44" fill="none" xmlns="http://www.w3.org/2000/svg"><path d="M41.86 33.08c-.698 0-1.24-.181-1.624-.544-.378-.368-.578-.92-.6-1.656a22.98 22.98 0 01-.008-.68c0-.293.003-.517.008-.672.022-.72.23-1.267.624-1.64.395-.379.928-.568 1.6-.568.667 0 1.198.19 1.592.568.395.373.603.92.624 1.64.011.31.016.533.016.672 0 .133-.005.36-.016.68-.02.736-.224 1.288-.608 1.656-.378.363-.914.544-1.608.544zm0-.68c.422 0 .758-.128 1.008-.384.251-.256.387-.648.408-1.176.011-.32.016-.533.016-.64 0-.117-.005-.33-.016-.64-.02-.528-.16-.92-.416-1.176-.25-.256-.584-.384-1-.384-.42 0-.76.128-1.016.384-.25.256-.386.648-.408 1.176-.005.155-.008.368-.008.64 0 .267.003.48.008.64.022.528.158.92.408 1.176.256.256.595.384 1.016.384zm3.479.6a.202.202 0 01-.136-.048.202.202 0 01-.049-.136v-3.784c0-.053.016-.099.048-.136a.185.185 0 01.137-.056h.367c.054 0 .1.019.136.056a.185.185 0 01.056.136v.352c.22-.363.592-.544 1.12-.544h.313a.16.16 0 01.127.056.16.16 0 01.056.128v.328a.16.16 0 01-.056.128.173.173 0 01-.127.048h-.48c-.288 0-.515.085-.68.256-.166.165-.248.392-.248.68v2.352a.185.185 0 01-.056.136.202.202 0 01-.136.048h-.392zm5.777 1.52a.185.185 0 01-.136-.056.173.173 0 01-.048-.128V32.48c-.31.4-.742.6-1.296.6-.555 0-.974-.176-1.256-.528-.283-.357-.432-.81-.448-1.36l-.008-.272.008-.272c.016-.555.162-1.008.44-1.36.282-.352.704-.528 1.264-.528.576 0 1.013.205 1.312.616v-.352c0-.053.016-.096.048-.128a.185.185 0 01.136-.056h.368a.16.16 0 01.128.056.16.16 0 01.056.128v5.312a.16.16 0 01-.056.128.16.16 0 01-.128.056h-.384zm-1.312-2.088c.357 0 .632-.117.824-.352.192-.235.293-.51.304-.824.005-.059.008-.163.008-.312 0-.15-.003-.25-.008-.304a1.485 1.485 0 00-.304-.864c-.182-.245-.456-.368-.824-.368-.379 0-.656.117-.832.352-.171.235-.264.544-.28.928l-.008.232c0 1.008.373 1.512 1.12 1.512zm4.23.648a1.67 1.67 0 01-.729-.16 1.394 1.394 0 01-.536-.432 1.066 1.066 0 01-.192-.616c0-.352.144-.64.432-.864.294-.23.688-.379 1.184-.448l1.192-.168v-.232c0-.544-.312-.816-.936-.816-.234 0-.426.05-.576.152a.982.982 0 00-.336.344.218.218 0 01-.064.104c-.021.021-.053.032-.096.032h-.344a.191.191 0 01-.128-.048.191.191 0 01-.048-.128c.006-.128.064-.272.176-.432.118-.165.296-.307.536-.424.24-.123.536-.184.888-.184.598 0 1.027.141 1.288.424.262.277.392.624.392 1.04v2.592a.185.185 0 01-.056.136.173.173 0 01-.128.048h-.368a.202.202 0 01-.136-.048.202.202 0 01-.048-.136v-.344c-.117.17-.288.315-.512.432-.224.117-.51.176-.856.176zm.167-.6c.347 0 .63-.112.848-.336.224-.23.336-.557.336-.984v-.224l-.928.136c-.378.053-.664.144-.856.272-.192.123-.288.28-.288.472 0 .213.088.379.264.496.176.112.384.168.624.168zm3.278.52a.202.202 0 01-.136-.048.202.202 0 01-.048-.136v-5.312c0-.053.016-.096.048-.128a.185.185 0 01.136-.056h.376a.16.16 0 01.128.056.16.16 0 01.056.128v5.312a.185.185 0 01-.056.136.173.173 0 01-.128.048h-.376zm1.874-4.936a.202.202 0 01-.136-.048.202.202 0 01-.048-.136v-.432c0-.053.016-.099.048-.136a.185.185 0 01.136-.056h.504c.053 0 .098.019.136.056a.185.185 0 01.056.136v.432a.185.185 0 01-.056.136.202.202 0 01-.136.048h-.504zM59.417 33a.202.202 0 01-.136-.048.202.202 0 01-.048-.136v-3.792c0-.053.016-.096.048-.128a.185.185 0 01.136-.056h.384a.16.16 0 01.128.056.16.16 0 01.056.128v3.792a.185.185 0 01-.056.136.173.173 0 01-.128.048h-.384zm4.223 1.52a.153.153 0 01-.112-.048.153.153 0 01-.048-.112c0-.037.014-.085.04-.144l.616-1.464-1.528-3.608a.513.513 0 01-.04-.136.163.163 0 01.168-.168h.392c.086 0 .15.045.192.136l1.216 2.912 1.248-2.912c.043-.09.11-.136.2-.136h.376c.048 0 .088.016.12.048s.048.07.048.112a.765.765 0 01-.04.144l-2.272 5.24c-.042.09-.109.136-.2.136h-.376zm5.238-1.44c-.506 0-.898-.163-1.176-.488-.277-.33-.416-.768-.416-1.312v-2.256c0-.053.016-.096.048-.128a.185.185 0 01.136-.056h.4a.16.16 0 01.128.056.16.16 0 01.056.128v2.216c0 .795.347 1.192 1.04 1.192.336 0 .603-.104.8-.312.198-.213.296-.507.296-.88v-2.216c0-.053.016-.096.048-.128a.185.185 0 01.136-.056h.4a.16.16 0 01.128.056.173.173 0 01.048.128v3.792a.202.202 0 01-.048.136.173.173 0 01-.128.048h-.376a.202.202 0 01-.136-.048.202.202 0 01-.048-.136v-.352a1.51 1.51 0 01-.544.464c-.213.101-.477.152-.792.152zm3.453-.08a.202.202 0 01-.136-.048.202.202 0 01-.048-.136v-5.312c0-.053.016-.096.048-.128a.185.185 0 01.136-.056h.376a.16.16 0 01.128.056.16.16 0 01.056.128v2.784l1.576-1.312a1.02 1.02 0 00.08-.064.402.402 0 01.104-.056.499.499 0 01.136-.016h.424a.163.163 0 01.168.168c0 .059-.032.11-.096.152l-1.848 1.536 2.048 1.992c.064.053.096.101.096.144a.163.163 0 01-.168.168h-.416a.477.477 0 01-.176-.024.757.757 0 01-.144-.112L72.89 31.16v1.656a.185.185 0 01-.056.136.173.173 0 01-.128.048h-.376zm4.125 0a.202.202 0 01-.136-.048.202.202 0 01-.048-.136v-5.312c0-.053.016-.096.048-.128a.185.185 0 01.136-.056h.376a.16.16 0 01.128.056.16.16 0 01.056.128v5.312a.185.185 0 01-.056.136.173.173 0 01-.128.048h-.376zm2.913.08c-.261 0-.504-.053-.728-.16a1.394 1.394 0 01-.536-.432 1.066 1.066 0 01-.192-.616c0-.352.144-.64.432-.864.293-.23.688-.379 1.184-.448l1.192-.168v-.232c0-.544-.312-.816-.936-.816-.234 0-.426.05-.576.152a.984.984 0 00-.336.344.217.217 0 01-.064.104c-.021.021-.053.032-.096.032h-.344a.191.191 0 01-.128-.048.191.191 0 01-.048-.128c.005-.128.064-.272.176-.432.118-.165.296-.307.536-.424.24-.123.536-.184.888-.184.597 0 1.027.141 1.288.424.261.277.392.624.392 1.04v2.592a.185.185 0 01-.056.136.173.173 0 01-.128.048h-.368a.202.202 0 01-.136-.048.202.202 0 01-.048-.136v-.344c-.117.17-.288.315-.512.432-.224.117-.51.176-.856.176zm.168-.6c.347 0 .63-.112.848-.336.224-.23.336-.557.336-.984v-.224l-.928.136c-.379.053-.664.144-.856.272-.192.123-.288.28-.288.472 0 .213.088.379.264.496.176.112.384.168.624.168zm5.142.6c-.576 0-1.013-.2-1.312-.6v.336a.185.185 0 01-.056.136.173.173 0 01-.128.048h-.368a.202.202 0 01-.136-.048.202.202 0 01-.048-.136v-5.312c0-.053.016-.096.048-.128a.185.185 0 01.136-.056h.392a.16.16 0 01.128.056.173.173 0 01.048.128v1.84c.315-.39.747-.584 1.296-.584.555 0 .974.184 1.256.552.283.363.435.819.456 1.368.006.059.008.139.008.24 0 .101-.002.181-.008.24-.021.555-.173 1.013-.456 1.376-.282.363-.701.544-1.256.544zm-.168-.648c.379 0 .654-.117.824-.352.176-.235.272-.544.288-.928a2.28 2.28 0 00.008-.232c0-1.008-.373-1.512-1.12-1.512-.357 0-.632.117-.824.352-.192.235-.293.51-.304.824l-.008.312.008.304c.016.336.115.627.296.872.187.24.464.36.832.36zm6.535.648c-.587 0-1.043-.165-1.368-.496-.32-.33-.49-.77-.512-1.32l-.008-.344.008-.344c.021-.544.195-.981.52-1.312.325-.336.779-.504 1.36-.504.581 0 1.035.168 1.36.504.325.33.499.768.52 1.312.005.059.008.173.008.344 0 .17-.003.285-.008.344-.021.55-.195.99-.52 1.32-.32.33-.773.496-1.36.496zm0-.616c.336 0 .6-.107.792-.32.197-.213.304-.52.32-.92a3.87 3.87 0 00.008-.304c0-.15-.003-.25-.008-.304-.016-.4-.123-.707-.32-.92-.192-.213-.456-.32-.792-.32s-.603.107-.8.32c-.197.213-.301.52-.312.92l-.008.304.008.304c.01.4.115.707.312.92.197.213.464.32.8.32zm3.082.536a.202.202 0 01-.136-.048.202.202 0 01-.048-.136v-5.312c0-.053.016-.096.048-.128a.185.185 0 01.136-.056h.376a.16.16 0 01.128.056.16.16 0 01.056.128v5.312a.185.185 0 01-.056.136.173.173 0 01-.128.048h-.376zM96 28.064a.202.202 0 01-.136-.048.202.202 0 01-.048-.136v-.432c0-.053.016-.099.048-.136a.185.185 0 01.136-.056h.504c.053 0 .099.019.136.056a.185.185 0 01.056.136v.432a.185.185 0 01-.056.136.202.202 0 01-.136.048H96zM96.065 33a.202.202 0 01-.136-.048.202.202 0 01-.048-.136v-3.792c0-.053.016-.096.048-.128a.185.185 0 01.136-.056h.384a.16.16 0 01.128.056.16.16 0 01.056.128v3.792a.185.185 0 01-.056.136.173.173 0 01-.128.048h-.384zm1.938 0a.202.202 0 01-.136-.048.202.202 0 01-.048-.136v-3.792c0-.053.016-.096.048-.128a.185.185 0 01.136-.056h.376a.16.16 0 01.128.056.16.16 0 01.056.128v.352c.154-.197.336-.35.544-.456.213-.107.477-.16.792-.16.512 0 .909.165 1.192.496.288.325.432.76.432 1.304v2.256a.186.186 0 01-.056.136.174.174 0 01-.128.048h-.4a.2.2 0 01-.136-.048.202.202 0 01-.048-.136V30.6c0-.379-.094-.672-.28-.88-.182-.208-.446-.312-.792-.312-.336 0-.603.107-.8.32-.198.208-.296.499-.296.872v2.216a.185.185 0 01-.056.136.173.173 0 01-.128.048h-.4zm6.371 1.76c-.437 0-.789-.075-1.056-.224-.267-.144-.456-.31-.568-.496a1.174 1.174 0 01-.184-.504.163.163 0 01.048-.136.205.205 0 01.136-.056h.384c.048 0 .088.01.12.032a.293.293 0 01.08.136c.064.17.168.317.312.44.149.128.379.192.688.192.395 0 .685-.085.872-.256.187-.165.28-.461.28-.888v-.544a1.541 1.541 0 01-.528.424 1.757 1.757 0 01-.76.152c-.565 0-.989-.179-1.272-.536-.277-.363-.424-.821-.44-1.376l-.008-.224.008-.216c.016-.55.165-1.005.448-1.368.283-.368.704-.552 1.264-.552s.997.205 1.312.616v-.344c0-.053.016-.099.048-.136a.185.185 0 01.136-.056h.368c.053 0 .099.019.136.056a.186.186 0 01.056.136v3.88c0 1.232-.627 1.848-1.88 1.848zm-.016-2.368c.363 0 .637-.12.824-.36a1.47 1.47 0 00.304-.856 3.24 3.24 0 00.008-.28 3.11 3.11 0 00-.008-.272 1.472 1.472 0 00-.304-.856c-.181-.24-.456-.36-.824-.36-.379 0-.653.117-.824.352-.171.235-.264.544-.28.928l-.008.208.008.216c.016.379.109.688.28.928.171.235.445.352.824.352zM15.064 10c-.032.1-.064.2-.064.334v25.164c0 .236.065.369.195.502l12.11-13.1L15.064 10zm13.058 13.767l3.131 3.299-4.47 2.6s-5.68 3.297-8.814 5.134l10.153-11.033zm.85-.9l3.359 3.566c.526-.299 4.637-2.7 5.224-3.033.62-.366.557-.867.03-1.133-.486-.277-4.597-2.682-5.219-3.072l-3.398 3.675.004-.003zM28.12 22l3.166-3.433-4.518-2.634s-7.366-4.303-9.817-5.74L28.122 22h-.002z" fill="#fff"/><path d="M.5 8A7.5 7.5 0 018 .5h131a7.5 7.5 0 017.5 7.5v28a7.5 7.5 0 01-7.5 7.5H8A7.5 7.5 0 01.5 36V8z" stroke="#fff"/><path d="M45.596 23.18c-1.572 0-2.796-.426-3.672-1.278-.864-.864-1.327-2.04-1.386-3.528-.012-.36-.018-.924-.018-1.692 0-.78.005-1.344.017-1.692.06-1.476.529-2.64 1.404-3.492.877-.852 2.094-1.278 3.654-1.278 1.056 0 1.95.192 2.683.576.744.372 1.302.828 1.674 1.368.372.54.57 1.044.593 1.512v.036a.29.29 0 01-.108.234.407.407 0 01-.27.09h-1.062a.535.535 0 01-.27-.054.771.771 0 01-.144-.27c-.18-.54-.528-1.002-1.044-1.386-.503-.384-1.188-.576-2.051-.576-.996 0-1.776.27-2.34.81-.565.54-.87 1.38-.919 2.52-.012.348-.018.882-.018 1.602 0 .708.006 1.242.018 1.602.048 1.152.354 2.004.918 2.556.564.54 1.344.81 2.34.81 1.008 0 1.813-.276 2.413-.828.6-.552.9-1.38.9-2.484v-.756h-2.7a.454.454 0 01-.306-.108.48.48 0 01-.108-.324v-.576c0-.12.036-.222.108-.306a.417.417 0 01.306-.126h4.068a.36.36 0 01.287.126.381.381 0 01.127.306v1.728c0 .984-.204 1.842-.612 2.574a4.254 4.254 0 01-1.765 1.71c-.768.396-1.674.594-2.718.594zm11.261 0c-1.32 0-2.346-.372-3.078-1.116-.72-.744-1.104-1.734-1.152-2.97l-.018-.774.018-.774c.048-1.224.438-2.208 1.17-2.952.732-.756 1.752-1.134 3.06-1.134s2.328.378 3.06 1.134c.732.744 1.122 1.728 1.17 2.952.012.132.018.39.018.774s-.006.642-.018.774c-.048 1.236-.438 2.226-1.17 2.97-.72.744-1.74 1.116-3.06 1.116zm0-1.386c.756 0 1.35-.24 1.782-.72.444-.48.684-1.17.72-2.07.012-.12.018-.348.018-.684 0-.336-.006-.564-.018-.684-.036-.9-.276-1.59-.72-2.07-.432-.48-1.026-.72-1.782-.72s-1.356.24-1.8.72c-.444.48-.678 1.17-.702 2.07l-.018.684.018.684c.024.9.258 1.59.702 2.07.444.48 1.044.72 1.8.72zm10.336 1.386c-1.32 0-2.346-.372-3.078-1.116-.72-.744-1.104-1.734-1.152-2.97l-.018-.774.018-.774c.048-1.224.438-2.208 1.17-2.952.732-.756 1.752-1.134 3.06-1.134s2.328.378 3.06 1.134c.732.744 1.122 1.728 1.17 2.952.012.132.018.39.018.774s-.006.642-.018.774c-.048 1.236-.438 2.226-1.17 2.97-.72.744-1.74 1.116-3.06 1.116zm0-1.386c.756 0 1.35-.24 1.782-.72.444-.48.684-1.17.72-2.07.012-.12.018-.348.018-.684 0-.336-.006-.564-.018-.684-.036-.9-.276-1.59-.72-2.07-.432-.48-1.026-.72-1.782-.72s-1.356.24-1.8.72c-.444.48-.678 1.17-.702 2.07l-.018.684.018.684c.024.9.258 1.59.702 2.07.444.48 1.044.72 1.8.72zM77.53 26.96c-.984 0-1.776-.168-2.376-.504-.6-.324-1.026-.696-1.278-1.116-.252-.42-.39-.798-.414-1.134a.362.362 0 01.108-.306.458.458 0 01.306-.126h.864c.108 0 .198.024.27.072.072.06.132.162.18.306.144.384.378.714.702.99.336.288.852.432 1.548.432.888 0 1.542-.192 1.962-.576.42-.372.63-1.038.63-1.998v-1.224a3.453 3.453 0 01-1.188.954c-.48.228-1.05.342-1.71.342-1.272 0-2.226-.402-2.862-1.206-.624-.816-.954-1.848-.99-3.096l-.018-.504.018-.486c.036-1.236.372-2.262 1.008-3.078.636-.828 1.584-1.242 2.844-1.242 1.26 0 2.244.462 2.952 1.386v-.774c0-.12.036-.222.108-.306a.417.417 0 01.306-.126h.828c.12 0 .222.042.306.126a.417.417 0 01.126.306v8.73c0 2.772-1.41 4.158-4.23 4.158zm-.036-5.328c.816 0 1.434-.27 1.854-.81.42-.54.648-1.182.684-1.926.012-.108.018-.318.018-.63 0-.3-.006-.504-.018-.612-.036-.744-.264-1.386-.684-1.926-.408-.54-1.026-.81-1.854-.81-.852 0-1.47.264-1.854.792-.384.528-.594 1.224-.63 2.088l-.018.468.018.486c.036.852.246 1.548.63 2.088.384.528 1.002.792 1.854.792zM84.868 23a.454.454 0 01-.306-.108.454.454 0 01-.108-.306V10.634a.39.39 0 01.108-.288.417.417 0 01.306-.126h.846a.36.36 0 01.287.126.36.36 0 01.126.288v11.952c0 .12-.041.222-.126.306a.39.39 0 01-.288.108h-.845zm7.689.18c-1.237 0-2.227-.378-2.97-1.134-.733-.768-1.135-1.812-1.207-3.132l-.017-.612.017-.594c.085-1.296.493-2.328 1.225-3.096.743-.768 1.721-1.152 2.933-1.152 1.333 0 2.365.426 3.097 1.278.731.84 1.097 1.98 1.097 3.42v.306c0 .12-.041.222-.126.306a.39.39 0 01-.287.108H90.09v.162c.035.78.27 1.446.702 1.998.444.54 1.025.81 1.745.81.553 0 1.002-.108 1.35-.324.36-.228.624-.462.792-.702.108-.144.186-.228.234-.252.06-.036.162-.054.306-.054h.883c.108 0 .198.03.27.09a.31.31 0 01.108.252c0 .264-.168.582-.504.954-.325.372-.787.696-1.386.972-.588.264-1.266.396-2.034.396zm2.465-5.544v-.054c0-.828-.228-1.5-.684-2.016-.444-.528-1.043-.792-1.8-.792-.755 0-1.355.264-1.8.792-.431.516-.647 1.188-.647 2.016v.054h4.931zM103.945 23a.454.454 0 01-.306-.108.454.454 0 01-.108-.306V10.832c0-.132.036-.234.108-.306a.417.417 0 01.306-.126h4.572c1.356 0 2.424.33 3.204.99.78.66 1.17 1.614 1.17 2.862s-.39 2.202-1.17 2.862c-.768.648-1.836.972-3.204.972h-3.186v4.5c0 .12-.042.222-.126.306a.454.454 0 01-.306.108h-.954zm4.482-6.426c.876 0 1.536-.198 1.98-.594.456-.396.684-.972.684-1.728s-.222-1.332-.666-1.728c-.444-.408-1.11-.612-1.998-.612h-3.114v4.662h3.114zM115.278 23a.454.454 0 01-.306-.108.454.454 0 01-.108-.306V10.634a.39.39 0 01.108-.288.417.417 0 01.306-.126h.846a.36.36 0 01.288.126.36.36 0 01.126.288v11.952c0 .12-.042.222-.126.306a.39.39 0 01-.288.108h-.846zm6.555.18a3.76 3.76 0 01-1.638-.36 3.136 3.136 0 01-1.206-.972 2.398 2.398 0 01-.432-1.386c0-.792.324-1.44.972-1.944.66-.516 1.548-.852 2.664-1.008l2.682-.378v-.522c0-1.224-.702-1.836-2.106-1.836-.528 0-.96.114-1.296.342a2.212 2.212 0 00-.756.774.49.49 0 01-.144.234c-.048.048-.12.072-.216.072h-.774a.43.43 0 01-.288-.108.43.43 0 01-.108-.288c.012-.288.144-.612.396-.972.264-.372.666-.69 1.206-.954.54-.276 1.206-.414 1.998-.414 1.344 0 2.31.318 2.898.954.588.624.882 1.404.882 2.34v5.832c0 .12-.042.222-.126.306a.39.39 0 01-.288.108h-.828a.454.454 0 01-.306-.108.454.454 0 01-.108-.306v-.774c-.264.384-.648.708-1.152.972-.504.264-1.146.396-1.926.396zm.378-1.35c.78 0 1.416-.252 1.908-.756.504-.516.756-1.254.756-2.214v-.504l-2.088.306c-.852.12-1.494.324-1.926.612-.432.276-.648.63-.648 1.062 0 .48.198.852.594 1.116.396.252.864.378 1.404.378zm8.388 4.59a.345.345 0 01-.252-.108.345.345 0 01-.108-.252.83.83 0 01.09-.324l1.386-3.294-3.438-8.118c-.06-.156-.09-.258-.09-.306a.366.366 0 01.378-.378h.882c.192 0 .336.102.432.306l2.736 6.552 2.808-6.552c.096-.204.246-.306.45-.306h.846c.108 0 .198.036.27.108a.345.345 0 01.108.252c0 .036-.03.144-.09.324l-5.112 11.79c-.096.204-.246.306-.45.306h-.846z" fill="#fff"/></svg>