<?xml version="1.0" encoding="iso-8859-1"?>
<!-- Generator: Adobe Illustrator 19.0.0, SVG Export Plug-In . SVG Version: 6.00 Build 0)  -->
<svg version="1.1" id="Capa_1" xmlns="http://www.w3.org/2000/svg" xmlns:xlink="http://www.w3.org/1999/xlink" x="0px" y="0px"
	 viewBox="0 0 512 512" style="enable-background:new 0 0 512 512;" xml:space="preserve">
<path style="fill:#E4C05C;" d="M167.751,172.138c0-9.737,7.892-17.629,17.629-17.629h167.724V48.525
	c0-9.737-7.892-17.629-17.629-17.629H17.629C7.892,30.897,0,38.788,0,48.525V260.44c0,9.737,7.892,17.629,17.629,17.629h26.509
	v88.276l88.276-88.276h35.337V172.138z"/>
<path style="fill:#ED8A19;" d="M158.897,163.284v211.915c0,9.737,7.892,17.629,17.629,17.629h105.958h97.103l88.276,88.276v-88.276
	h26.509c9.737,0,17.629-7.892,17.629-17.629V163.284c0-9.737-7.892-17.629-17.629-17.629H176.525
	C166.788,145.655,158.897,153.547,158.897,163.284z"/>
<g>
	<circle style="fill:#FFFFFF;" cx="335.448" cy="269.241" r="35.31"/>
	<circle style="fill:#FFFFFF;" cx="441.379" cy="269.241" r="35.31"/>
	<circle style="fill:#FFFFFF;" cx="229.517" cy="269.241" r="35.31"/>
</g>
<g>
</g>
<g>
</g>
<g>
</g>
<g>
</g>
<g>
</g>
<g>
</g>
<g>
</g>
<g>
</g>
<g>
</g>
<g>
</g>
<g>
</g>
<g>
</g>
<g>
</g>
<g>
</g>
<g>
</g>
</svg>
