<?xml version="1.0" encoding="iso-8859-1"?>
<!-- Generator: Adobe Illustrator 19.0.0, SVG Export Plug-In . SVG Version: 6.00 Build 0)  -->
<svg version="1.1" id="Capa_1" xmlns="http://www.w3.org/2000/svg" xmlns:xlink="http://www.w3.org/1999/xlink" x="0px" y="0px"
	 viewBox="0 0 511.991 511.991" style="enable-background:new 0 0 511.991 511.991;" xml:space="preserve">
<g>
	<polygon style="fill:#1138F7;" points="47.381,216.96 60.026,242.576 88.314,246.683 67.848,266.563 72.671,294.722 
		47.381,281.425 22.155,294.722 26.979,266.563 6.512,246.683 34.735,242.576 	"/>
	<path style="fill:#1138F7;" d="M72.671,301.24c-1.036,0-2.079-0.248-3.031-0.75l-22.253-11.7l-22.188,11.7
		c-2.197,1.16-4.856,0.958-6.87-0.489c-2.008-1.46-3.011-3.937-2.594-6.381l4.243-24.769L1.975,251.356
		c-1.779-1.734-2.425-4.322-1.656-6.681c0.763-2.36,2.803-4.08,5.26-4.445l24.834-3.611l11.133-22.54
		c2.197-4.452,9.49-4.452,11.687,0l11.133,22.54l24.893,3.611c2.457,0.358,4.498,2.079,5.267,4.445
		c0.769,2.36,0.124,4.954-1.656,6.681l-18.003,17.495l4.243,24.769c0.417,2.444-0.587,4.915-2.594,6.381
		C75.369,300.816,74.02,301.24,72.671,301.24z M47.381,274.906c1.043,0,2.086,0.248,3.031,0.75l13.603,7.15l-2.594-15.135
		c-0.365-2.118,0.345-4.276,1.884-5.775l10.97-10.664l-15.187-2.203c-2.125-0.306-3.957-1.643-4.908-3.565l-6.798-13.779
		l-6.798,13.779c-0.952,1.923-2.783,3.259-4.902,3.565l-15.129,2.197l10.977,10.657c1.538,1.499,2.249,3.663,1.884,5.782
		l-2.594,15.116l13.532-7.131C45.295,275.154,46.338,274.906,47.381,274.906z"/>
	<polygon style="fill:#1138F7;" points="151.671,216.96 164.316,242.576 192.605,246.683 172.138,266.563 176.961,294.722 
		151.671,281.425 126.446,294.722 131.269,266.563 110.802,246.683 139.026,242.576 	"/>
	<path style="fill:#1138F7;" d="M176.961,301.24c-1.036,0-2.079-0.248-3.031-0.75l-22.253-11.7l-22.188,11.7
		c-2.19,1.16-4.856,0.958-6.87-0.489c-2.008-1.46-3.011-3.937-2.594-6.381l4.243-24.769l-18.003-17.495
		c-1.779-1.734-2.425-4.322-1.656-6.681c0.763-2.36,2.803-4.08,5.26-4.445l24.834-3.611l11.133-22.54
		c2.197-4.452,9.49-4.452,11.687,0l11.133,22.54l24.893,3.611c2.457,0.358,4.498,2.079,5.267,4.445
		c0.769,2.36,0.124,4.954-1.656,6.681l-18.003,17.495l4.243,24.769c0.417,2.444-0.587,4.915-2.594,6.381
		C179.66,300.816,178.31,301.24,176.961,301.24z M151.671,274.906c1.043,0,2.086,0.248,3.031,0.75l13.603,7.15l-2.594-15.135
		c-0.365-2.118,0.345-4.276,1.884-5.775l10.97-10.664l-15.187-2.203c-2.125-0.306-3.957-1.643-4.908-3.565l-6.798-13.773
		l-6.798,13.773c-0.952,1.923-2.783,3.259-4.902,3.565l-15.129,2.197l10.977,10.657c1.538,1.499,2.249,3.663,1.884,5.782
		l-2.594,15.116l13.532-7.131C149.585,275.154,150.628,274.906,151.671,274.906z"/>
	<polygon style="fill:#1138F7;" points="255.961,216.96 268.606,242.576 296.895,246.683 276.428,266.563 281.251,294.722 
		255.961,281.425 230.736,294.722 235.559,266.563 215.092,246.683 243.316,242.576 	"/>
	<path style="fill:#1138F7;" d="M230.736,301.24c-1.349,0-2.692-0.417-3.826-1.238c-2.008-1.46-3.011-3.937-2.594-6.381
		l4.243-24.769l-18.003-17.495c-1.779-1.734-2.425-4.322-1.656-6.681c0.763-2.36,2.803-4.08,5.26-4.445l24.834-3.611l11.133-22.54
		c2.197-4.452,9.49-4.452,11.687,0l11.133,22.54l24.893,3.611c2.457,0.359,4.497,2.079,5.267,4.445
		c0.763,2.36,0.124,4.954-1.656,6.681l-18.01,17.495l4.243,24.769c0.417,2.444-0.587,4.915-2.588,6.375
		c-2.014,1.467-4.667,1.656-6.87,0.495l-22.253-11.7l-22.188,11.7C232.822,300.992,231.779,301.24,230.736,301.24z M255.961,274.906
		c1.043,0,2.086,0.248,3.031,0.75l13.603,7.15l-2.588-15.135c-0.365-2.118,0.339-4.276,1.877-5.775l10.977-10.664l-15.187-2.203
		c-2.125-0.306-3.957-1.643-4.908-3.565l-6.798-13.773l-6.798,13.773c-0.952,1.923-2.783,3.259-4.902,3.565l-15.129,2.197
		l10.977,10.657c1.538,1.499,2.249,3.663,1.884,5.782l-2.594,15.116l13.532-7.131C253.875,275.154,254.918,274.906,255.961,274.906z
		"/>
	<polygon style="fill:#1138F7;" points="360.251,216.96 372.897,242.576 401.185,246.683 380.718,266.563 385.542,294.722 
		360.251,281.425 335.026,294.722 339.85,266.563 319.383,246.683 347.606,242.576 	"/>
	<path style="fill:#1138F7;" d="M335.026,301.24c-1.349,0-2.692-0.417-3.826-1.238c-2.014-1.46-3.018-3.93-2.594-6.381l4.237-24.769
		l-18.01-17.495c-1.773-1.734-2.418-4.322-1.656-6.681s2.809-4.08,5.267-4.445l24.834-3.611l11.126-22.54
		c2.19-4.452,9.497-4.452,11.687,0l11.133,22.546l24.893,3.611c2.457,0.359,4.498,2.079,5.267,4.445
		c0.763,2.36,0.124,4.954-1.656,6.681l-18.01,17.495l4.243,24.769c0.417,2.444-0.587,4.915-2.588,6.375
		c-2.021,1.467-4.673,1.656-6.864,0.495l-22.259-11.7l-22.181,11.7C337.112,300.992,336.069,301.24,335.026,301.24z
		 M360.251,274.906c1.043,0,2.079,0.248,3.031,0.75l13.61,7.15l-2.588-15.135c-0.365-2.118,0.339-4.276,1.877-5.775l10.977-10.664
		l-15.187-2.203c-2.125-0.306-3.957-1.643-4.908-3.565l-6.805-13.779l-6.798,13.773c-0.952,1.923-2.783,3.259-4.908,3.565
		l-15.122,2.197l10.977,10.664c1.538,1.493,2.242,3.657,1.877,5.775l-2.581,15.116l13.519-7.131
		C358.159,275.154,359.202,274.906,360.251,274.906z"/>
	<polygon style="fill:#1138F7;" points="464.542,216.96 477.187,242.576 505.476,246.683 485.009,266.563 489.832,294.722 
		464.542,281.425 439.316,294.722 444.14,266.563 423.673,246.683 451.896,242.576 	"/>
	<path style="fill:#1138F7;" d="M439.316,301.24c-1.349,0-2.692-0.417-3.826-1.238c-2.014-1.46-3.018-3.93-2.594-6.381l4.237-24.769
		l-18.01-17.495c-1.773-1.734-2.418-4.322-1.656-6.681c0.763-2.36,2.809-4.08,5.267-4.445l24.834-3.611l11.126-22.54
		c2.19-4.452,9.497-4.452,11.687,0l11.133,22.546l24.893,3.611c2.457,0.359,4.498,2.079,5.267,4.445
		c0.763,2.36,0.124,4.954-1.656,6.681l-18.01,17.495l4.243,24.769c0.417,2.444-0.587,4.915-2.588,6.375
		c-2.014,1.467-4.674,1.656-6.864,0.495l-22.259-11.7l-22.181,11.7C441.402,300.992,440.359,301.24,439.316,301.24z
		 M464.542,274.906c1.043,0,2.079,0.248,3.031,0.75l13.61,7.15l-2.588-15.135c-0.365-2.118,0.339-4.276,1.877-5.775l10.977-10.664
		l-15.187-2.203c-2.125-0.306-3.957-1.643-4.908-3.565l-6.805-13.779l-6.798,13.773c-0.952,1.923-2.783,3.259-4.908,3.565
		l-15.122,2.197l10.977,10.664c1.538,1.493,2.242,3.657,1.877,5.775l-2.581,15.116l13.519-7.131
		C462.449,275.154,463.492,274.906,464.542,274.906z"/>
</g>
<g>
</g>
<g>
</g>
<g>
</g>
<g>
</g>
<g>
</g>
<g>
</g>
<g>
</g>
<g>
</g>
<g>
</g>
<g>
</g>
<g>
</g>
<g>
</g>
<g>
</g>
<g>
</g>
<g>
</g>
</svg>
