<?xml version="1.0" encoding="UTF-8"?>
<!DOCTYPE svg PUBLIC "-//W3C//DTD SVG 1.1//EN" "http://www.w3.org/Graphics/SVG/1.1/DTD/svg11.dtd">
<!-- Creator: CorelDRAW 2021 (64-Bit) -->
<svg xmlns="http://www.w3.org/2000/svg" xml:space="preserve" width="101.6mm" height="135.466mm" version="1.1" style="shape-rendering:geometricPrecision; text-rendering:geometricPrecision; image-rendering:optimizeQuality; fill-rule:evenodd; clip-rule:evenodd"
viewBox="0 0 120.93 161.24"
 xmlns:xlink="http://www.w3.org/1999/xlink"
 xmlns:xodm="http://www.corel.com/coreldraw/odm/2003">
 <defs>
  <style type="text/css">
   <![CDATA[
    .fil0 {fill:#212529;fill-rule:nonzero}
   ]]>
  </style>
 </defs>
 <g id="Layer_x0020_1">
  <metadata id="CorelCorpID_0Corel-Layer"/>
  <g id="_1732704023632">
   <path class="fil0" d="M60.47 80.62c22.26,0 40.31,-18.05 40.31,-40.31 0,-22.26 -18.05,-40.31 -40.31,-40.31 -22.26,0 -40.31,18.05 -40.31,40.31 0.02,22.25 18.06,40.29 40.31,40.31l-0 0zm0 -67.18c14.84,0 26.87,12.03 26.87,26.87 0,14.84 -12.03,26.87 -26.87,26.87 -14.84,0 -26.87,-12.03 -26.87,-26.87 0,-14.84 12.03,-26.87 26.87,-26.87z"/>
   <path class="fil0" d="M60.47 94.06c-33.37,0.03 -60.44,27.09 -60.47,60.47 0,3.71 3.01,6.72 6.72,6.72 3.71,0 6.72,-3.01 6.72,-6.72 0,-25.97 21.06,-47.03 47.03,-47.03 25.97,0 47.03,21.06 47.03,47.03 0,3.71 3.01,6.72 6.72,6.72 3.71,0 6.72,-3.01 6.72,-6.72 -0.03,-33.37 -27.09,-60.44 -60.47,-60.47l0 0z"/>
  </g>
 </g>
</svg>
