<?xml version="1.0" encoding="UTF-8"?>
<!DOCTYPE svg PUBLIC "-//W3C//DTD SVG 1.1//EN" "http://www.w3.org/Graphics/SVG/1.1/DTD/svg11.dtd">
<!-- Creator: CorelDRAW 2021 (64-Bit) -->
<svg xmlns="http://www.w3.org/2000/svg" xml:space="preserve" width="135.485mm" height="119.114mm" version="1.1" style="shape-rendering:geometricPrecision; text-rendering:geometricPrecision; image-rendering:optimizeQuality; fill-rule:evenodd; clip-rule:evenodd"
viewBox="0 0 189.37 166.49"
 xmlns:xlink="http://www.w3.org/1999/xlink"
 xmlns:xodm="http://www.corel.com/coreldraw/odm/2003">
 <defs>
  <style type="text/css">
   <![CDATA[
    .fil0 {fill:#212529}
   ]]>
  </style>
 </defs>
 <g id="Layer_x0020_1">
  <metadata id="CorelCorpID_0Corel-Layer"/>
  <path class="fil0" d="M138.33 15.92c10.6,0 22.64,7.49 28.41,15.97 5.34,7.85 6.72,14.17 6.72,23.98 0,16.69 -14.21,38.76 -24.7,50.76 -1.77,2.03 -3.28,4.03 -5.17,5.92l-7.57 8.33c-4.96,4.91 -12.87,12.87 -18.09,17.05 -0.65,0.52 -0.9,0.87 -1.51,1.44 -6.18,5.78 -12.54,11.19 -22.1,11.19 -7.91,0 -12.52,-3.71 -16.75,-7.29 -0.68,-0.58 -0.76,-0.52 -1.46,-1.13 -0.57,-0.51 -0.75,-0.77 -1.34,-1.25l-4.59 -3.91c-1.21,-1.17 -1.59,-1.58 -2.91,-2.63 -1.99,-1.59 -3.37,-3.44 -5.55,-5.18 -4.06,-3.24 -11.8,-12.19 -15.94,-16.61 -5.86,-6.27 -14.28,-17.23 -18.66,-24.62 -6.85,-11.56 -11.21,-20.18 -11.21,-35.76 0,-9.2 4.55,-18.82 10.63,-24.87 13.07,-13 30.03,-15.26 45.17,-3.93 7.78,5.83 13.73,15.52 14.8,25.52 0.44,4.17 -0.66,7.14 1.08,10.39 4.07,7.61 15.24,4.57 15.24,-4.15 0,-9.65 1.32,-16.21 7.6,-24.58l4.45 -4.8c3.4,-2.62 3.07,-3.16 8.54,-5.89 3.88,-1.93 9.33,-3.94 14.92,-3.94zm-138.33 34.4l0 7.4c0,13.4 7.53,28.93 12.73,37.58 1.63,2.72 3.23,5.04 4.95,7.62l12.19 15.92c6.73,7.55 9.58,10.71 17.01,18.13 5.54,5.54 21.01,19.81 26.79,23.51 13.87,8.89 32.6,7.83 45.48,-2.47l23.16 -20.86c14.82,-14.82 29.24,-30.79 38.69,-49.71l3.8 -8.77c4.36,-12.25 4.58,-14.81 4.58,-27.6 0,-12.91 -6.51,-26.3 -15.44,-35.23 -20.8,-20.8 -50.29,-21.4 -71.94,-0 -1.62,1.6 -6.43,7.54 -6.93,9.71l-0.74 0c-1.14,-4.9 -11.17,-14.09 -15.98,-17.31 -14.54,-9.73 -32.3,-10.91 -48.01,-3.03 -11.47,5.75 -19.26,13.47 -25.15,25.15 -2.33,4.61 -5.18,13.1 -5.18,19.97z"/>
 </g>
</svg>
