<?xml version="1.0" encoding="UTF-8"?>
<!DOCTYPE svg PUBLIC "-//W3C//DTD SVG 1.1//EN" "http://www.w3.org/Graphics/SVG/1.1/DTD/svg11.dtd">
<!-- Creator: CorelDRAW 2021 (64-Bit) -->
<svg xmlns="http://www.w3.org/2000/svg" xml:space="preserve" width="135.45mm" height="135.45mm" version="1.1" style="shape-rendering:geometricPrecision; text-rendering:geometricPrecision; image-rendering:optimizeQuality; fill-rule:evenodd; clip-rule:evenodd"
viewBox="0 0 183.52 183.52"
 xmlns:xlink="http://www.w3.org/1999/xlink"
 xmlns:xodm="http://www.corel.com/coreldraw/odm/2003">
 <defs>
  <style type="text/css">
   <![CDATA[
    .fil0 {fill:#212529}
   ]]>
  </style>
 </defs>
 <g id="Layer_x0020_1">
  <metadata id="CorelCorpID_0Corel-Layer"/>
  <path class="fil0" d="M112.19 165.24l5.94 -8.04c5.23,-7.23 8.97,-14.32 12.94,-22.19 0.87,-1.72 1.43,-3.32 2.27,-4.9l24.37 0 -8.4 11.68c-5.78,7.44 -14.52,13.08 -22.45,17.7 -2.91,1.69 -11.18,4.94 -14.68,5.75zm-44.81 -35.13l48.75 0c-5.09,9.63 -10.23,18.39 -17.32,26.77 -1.14,1.35 -6.43,6.99 -6.7,8l-0.72 0c-0.24,-0.91 -5.62,-6.72 -6.7,-8 -7.07,-8.37 -12.23,-17.16 -17.32,-26.77zm-41.58 0l24.37 0c0.79,1.49 1.38,3.14 2.15,4.66 0.81,1.61 1.54,3.06 2.39,4.78 6.37,12.77 15.03,22.7 16.61,25.69 -1.96,-0.46 -5.76,-1.74 -7.52,-2.51 -4.53,-1.99 -9.15,-4.07 -13.27,-6.8 -12.82,-8.51 -16.92,-14.15 -24.73,-25.81zm96.78 -15.41l-61.65 0 -2.41 -10.85c-1.54,-9.2 -1.54,-14.98 0,-24.17l2.41 -10.85 61.65 0c0.1,1.25 2.74,10.33 3.21,16.51 0.08,1.05 -0.04,2.1 0.07,3.15 0.61,5.6 0.21,3.67 -0.05,9.37 -0.29,6.1 -3.09,15.19 -3.23,16.85zm16.13 -45.88l25.09 0c1.29,0 1.34,1.74 2.01,4.44 3.02,12.08 3.05,24.62 0.07,36.71 -0.6,2.45 -0.79,4.73 -2.08,4.73l-25.09 0c0.03,-1.52 0.75,-3.91 1.05,-5.4 1.98,-9.86 2.44,-19.5 0.96,-29.58l-2 -10.9zm-96.78 22.58c0,6.57 0.58,11.73 1.82,17.89 0.3,1.5 1.01,3.88 1.05,5.4l-25.09 0c-2.62,0 -4.3,-19.06 -4.3,-21.51 0,-7.95 0.42,-12.44 2.29,-19.93 0.34,-1.36 0.59,-4.44 2.01,-4.44l25.09 0c-0.03,1.46 -0.72,3.79 -0.99,5.11 -1.16,5.8 -1.88,11.29 -1.88,17.48zm49.47 -72.76l0.72 0c0.24,0.91 5.62,6.72 6.7,8 1.17,1.39 2.02,2.56 3.13,4.04 7.17,9.57 8.9,12.75 14.18,22.74l-48.75 0c5.09,-9.63 10.23,-18.39 17.32,-26.77 1.14,-1.35 6.43,-6.99 6.7,-8zm20.79 -0.36c1.96,0.46 5.76,1.74 7.52,2.51 7.34,3.23 12.59,5.68 19.12,10.99 5.91,4.8 10.45,9.3 14.79,15.32 1.55,2.15 2.68,4.2 4.09,6.3l-24.37 0 -4.54 -9.44c-1.61,-3.23 -3.22,-5.92 -5.02,-8.95 -3.26,-5.47 -4.95,-7.76 -8.56,-12.59 -1.07,-1.43 -2.25,-2.69 -3.02,-4.15zm-62.01 35.13l-24.37 0c1.35,-2.02 2.54,-4.11 3.94,-6.09 5.84,-8.28 14.8,-16.38 23.67,-21.49 3.62,-2.09 6.31,-3.19 10.14,-4.91 1.93,-0.87 5.7,-2.15 7.77,-2.63 -1.52,2.88 -10.38,13.17 -16.49,25.45l-4.66 9.68zm-50.18 35.13c0,16.45 1.99,28.56 8.48,42.06 4.79,9.98 10.58,18.4 18.32,26.13 15.77,15.77 39.5,26.79 61.74,26.79 16.47,0 28.54,-1.99 42.06,-8.48 19.92,-9.56 34.29,-23.82 44.33,-44.21 4.86,-9.87 8.6,-24.66 8.6,-35.85 0,-16.47 -1.99,-28.54 -8.48,-42.06 -2.37,-4.94 -5.14,-9.76 -8.22,-14.01 -2.51,-3.47 -7.16,-9.19 -10.1,-12.13l-8.61 -7.52c-1.16,-0.95 -2.14,-1.61 -3.31,-2.43 -13.34,-9.41 -31.62,-16.84 -49.83,-16.84 -16.49,0 -28.52,1.98 -42.06,8.48 -15.63,7.51 -26.23,16.75 -36.13,30.18 -9.58,12.98 -16.79,33.15 -16.79,49.88z"/>
 </g>
</svg>
