<?xml version="1.0" encoding="UTF-8"?>
<!DOCTYPE svg PUBLIC "-//W3C//DTD SVG 1.1//EN" "http://www.w3.org/Graphics/SVG/1.1/DTD/svg11.dtd">
<!-- Creator: CorelDRAW 2021 (64-Bit) -->
<svg xmlns="http://www.w3.org/2000/svg" xml:space="preserve" width="132.142mm" height="135.467mm" version="1.1" style="shape-rendering:geometricPrecision; text-rendering:geometricPrecision; image-rendering:optimizeQuality; fill-rule:evenodd; clip-rule:evenodd"
viewBox="0 0 192.36 197.2"
 xmlns:xlink="http://www.w3.org/1999/xlink"
 xmlns:xodm="http://www.corel.com/coreldraw/odm/2003">
 <defs>
  <style type="text/css">
   <![CDATA[
    .fil0 {fill:#212529;fill-rule:nonzero}
   ]]>
  </style>
 </defs>
 <g id="Layer_x0020_1">
  <metadata id="CorelCorpID_0Corel-Layer"/>
  <g id="_1732897426368">
   <path class="fil0" d="M186.62 33.5c-4.67,-5.61 -11.59,-8.85 -18.89,-8.85 -0.01,0 -0.02,0 -0.03,0l-132.85 -0 -0.35 -2.88c-1.46,-12.4 -11.98,-21.76 -24.47,-21.77l-1.83 -0c-4.54,0 -8.22,3.68 -8.22,8.22 0,4.54 3.68,8.22 8.22,8.22l1.82 0c4.17,0 7.67,3.12 8.16,7.26l11.31 96.13c2.43,20.69 19.97,36.29 40.8,36.29 0,0 0,0 0,0l85.81 0c4.54,-0 8.22,-3.68 8.22,-8.22 0,-4.54 -3.68,-8.22 -8.22,-8.22l-85.81 0c-10.42,-0.03 -19.7,-6.61 -23.17,-16.43l97.94 0c-0,-0 0,-0 0,-0 19.88,0 36.91,-14.23 40.43,-33.79l6.45 -35.78c0.26,-1.45 0.4,-2.92 0.4,-4.39 0,-5.77 -2.03,-11.36 -5.74,-15.79l0 -0zm-10.79 17.26l-6.46 35.78c-2.11,11.74 -12.33,20.28 -24.26,20.28 -0.01,0 -0.02,0 -0.04,0l-100.56 0 -7.73 -65.73 130.91 0c0.02,0 0.03,0 0.05,0 4.54,0 8.22,3.68 8.22,8.22 0,0.49 -0.05,0.98 -0.13,1.46l0 0z"/>
   <circle class="fil0" cx="57.52" cy="180.76" r="16.43"/>
   <circle class="fil0" cx="139.68" cy="180.76" r="16.43"/>
  </g>
 </g>
</svg>
