<svg width="17" height="17" fill="none" xmlns="http://www.w3.org/2000/svg"><path d="M10.124 11.834a.708.708 0 111.002-1.002l2.833 2.834a.708.708 0 01-1.002 1.002l-2.833-2.834z" fill="#fff" stroke="#fff" stroke-width=".5"/><path fill-rule="evenodd" clip-rule="evenodd" d="M2.833 7.792a4.958 4.958 0 109.917 0 4.958 4.958 0 00-9.917 0zm8.5 0a3.542 3.542 0 11-7.083 0 3.542 3.542 0 017.083 0z" fill="#fff"/><path d="M7.792 12.5a4.708 4.708 0 01-4.709-4.708h-.5A5.208 5.208 0 007.792 13v-.5zM12.5 7.792c0 2.6-2.108 4.708-4.708 4.708v.5A5.208 5.208 0 0013 7.792h-.5zM7.792 3.083c2.6 0 4.708 2.108 4.708 4.709h.5a5.208 5.208 0 00-5.208-5.209v.5zM3.083 7.792a4.71 4.71 0 014.709-4.709v-.5a5.208 5.208 0 00-5.209 5.209h.5zm4.709 3.791a3.792 3.792 0 003.791-3.791h-.5a3.292 3.292 0 01-3.291 3.291v.5zM4 7.792a3.792 3.792 0 003.792 3.791v-.5A3.292 3.292 0 014.5 7.792H4zM7.792 4A3.792 3.792 0 004 7.792h.5A3.292 3.292 0 017.792 4.5V4zm3.791 3.792A3.792 3.792 0 007.792 4v.5a3.292 3.292 0 013.291 3.292h.5z" fill="#fff"/></svg>