<?xml version="1.0" encoding="UTF-8"?>
<!DOCTYPE svg PUBLIC "-//W3C//DTD SVG 1.1//EN" "http://www.w3.org/Graphics/SVG/1.1/DTD/svg11.dtd">
<!-- Creator: CorelDRAW 2021 (64-Bit) -->
<svg xmlns="http://www.w3.org/2000/svg" xml:space="preserve" width="157.224mm" height="129.285mm" version="1.1" style="shape-rendering:geometricPrecision; text-rendering:geometricPrecision; image-rendering:optimizeQuality; fill-rule:evenodd; clip-rule:evenodd"
viewBox="0 0 240.62 197.87"
 xmlns:xlink="http://www.w3.org/1999/xlink"
 xmlns:xodm="http://www.corel.com/coreldraw/odm/2003">
 <defs>
  <style type="text/css">
   <![CDATA[
    .fil0 {fill:#212529}
   ]]>
  </style>
 </defs>
 <g id="Layer_x0020_1">
  <metadata id="CorelCorpID_0Corel-Layer"/>
  <path class="fil0" d="M19.12 65.57l1.82 3.64c0.26,0.52 0.6,1 0.88,1.52 2.39,4.45 5.04,8.83 7.74,13.09 2.73,4.31 5.59,8.63 8.64,12.71 1.37,1.83 2.44,3.51 4.39,4.8 1.79,1.19 4.07,1.98 6.23,1.98 6.05,0 8.23,-2.31 11.62,-6.89 0.77,-1.04 1.47,-2.13 2.22,-3.19 0.74,-1.04 1.43,-2.11 2.18,-3.14 2.91,-3.99 5.6,-8.46 8.16,-12.69l3.84 -6.86c2.57,-4.59 4.6,-9.24 6.28,-14.24 3.25,-9.68 -0.15,-21.73 -6.61,-29.36 -3.1,-3.67 -6.58,-6.68 -10.86,-8.91 -5.67,-2.95 -10.88,-3.98 -17.29,-3.98 -2.92,0 -5.76,0.53 -8.57,1.27 -8.9,2.33 -17.5,9.21 -21.58,17.47 -6.13,12.39 -4.92,20.62 0.92,32.8zm20.53 -15.83l0 -1.6c0,-4.65 4.26,-8.94 10.08,-8.94 4.6,0 9.17,4.38 9.17,8.94 0,3.11 -0.59,5.79 -2.92,7.85 -7.11,6.28 -16.33,0.3 -16.33,-6.25zm145.42 130.74c-6.64,0 -12.88,-5.43 -12.88,-12.08 0,-3.73 0.22,-2.63 0.4,-4.83l24.15 0c1.99,4.15 0.05,10.48 -2.93,13.17 -2.11,1.91 -5.92,3.73 -8.75,3.73zm-107.49 -12.48l0.81 -4.43 24.15 0c0.42,5.09 1.37,11.91 -6.91,15.64 -9.19,4.14 -18.05,-3.15 -18.05,-11.21zm130.03 -22.14l-26.97 0 0 -33.82 42.67 0 0 16.91c0,4.91 -2.1,8.96 -4.52,11.58 -2.31,2.51 -6.56,5.33 -11.18,5.33zm-155.79 -16.91l0 -11.67c4.34,-0.41 8.57,-1.89 12.21,-4.42 5.07,-3.52 8.08,-8.54 11.69,-13.75 4.53,-6.54 7.38,-11.27 11.27,-17.84 0.49,-0.83 0.9,-1.51 1.32,-2.34l3.74 -7.26c2.63,-5.68 6.49,-14.62 6.49,-22.61 0,-7.55 -2.37,-16.72 -5.83,-23.16l43.64 0c15.61,0 26.97,11.37 26.97,26.97l0 92.99 -95.81 0c-8.05,0 -15.7,-7.79 -15.7,-16.91zm-17.31 -16.1l0 17.72c0,3.89 1.35,9.09 2.68,11.82 4.84,9.97 12.3,17.38 23.49,19.99 -0.61,7.3 -1.06,11.03 2.54,18.79 4.06,8.74 14.27,16.08 24.44,16.65 5.99,0.34 10.85,-0.49 15.42,-2.69 2.98,-1.43 4.32,-2.25 6.61,-4.25 2.28,-1.99 3.44,-2.92 5.41,-5.86 3.14,-4.7 5.55,-11.14 5.55,-17.4 0,-1.71 -0.4,-1.89 -0.4,-4.03l34.62 0c0,5.45 -1.08,6.2 1.46,13.84 5.28,15.91 23.22,25.08 40.65,17.79 3.06,-1.28 6.36,-3.5 8.73,-5.76 4.05,-3.86 9.15,-12.15 9.15,-19.84 0,-3.51 0.28,-4.31 -0.4,-7.25 14.46,-3.37 26.17,-17.52 26.17,-31.8l0 -46.3c0,-7.67 -2.82,-14.78 -5.65,-19.71 -6.26,-10.89 -17.14,-18.82 -30.11,-21.02 -6.9,-1.17 -16.85,-0.74 -25.03,-0.74l-2.24 -7.02c-6.31,-15.77 -21.66,-27.2 -39.63,-27.2l-60.84 0c-1.94,-1.3 -4.1,-2.53 -6.54,-3.76 -5.87,-2.94 -12.55,-4.55 -19.3,-4.81l-4.02 0c-6.75,0.27 -13.44,1.87 -19.3,4.81 -3.08,1.55 -8.21,4.5 -10.83,7.04 -1.11,1.07 -2.14,1.87 -3.21,2.98 -0.6,0.63 -0.74,0.99 -1.37,1.61 -2.03,2.03 -3.53,4.42 -5.13,6.79 -4.33,6.45 -7.42,17.11 -7.42,25.81 0,14.4 12.9,35.17 19.71,45.38 2.35,3.53 6.5,9.72 9.03,12.97 1.74,2.23 3.52,3.94 5.77,5.45zm146.13 -52.33l18.92 0c3.43,0 7.13,1.33 9.54,2.54 8.38,4.2 14.21,12.76 14.21,22.42l0 8.86 -42.67 0 0 -33.82zm-131.14 8.02c5.1,0 10.24,-2.34 13.58,-5.67 5.62,-5.59 7.33,-13.95 4.33,-21.41 -0.88,-2.18 -2.21,-4.34 -3.76,-5.87 -4.68,-4.62 -8.43,-6.24 -15.3,-6.24 -4.09,0 -7.69,1.61 -10.68,3.76 -1.19,0.86 -1.67,1.38 -2.68,2.37 -1.6,1.58 -2.92,3.66 -3.81,5.82 -0.86,2.11 -1.85,5.94 -1.61,8.18 0.35,3.21 0.81,5.14 1.9,7.74 1.67,4 5.85,7.95 9.86,9.62 2.41,1 4.84,1.7 8.16,1.7z"/>
 </g>
</svg>
